<svg xmlns:xlink="http://www.w3.org/1999/xlink" viewBox="0 0 388.08 208.224" xmlns="http://www.w3.org/2000/svg" version="1.1">
 
 <defs>
  <style type="text/css">*{stroke-linejoin: round; stroke-linecap: butt}</style>
 </defs>
 <g id="figure_1">
  <g id="patch_1">
   <path d="M 0 208.224 
L 388.08 208.224 
L 388.08 0 
L 0 0 
L 0 208.224 
z
" style="fill: none"/>
  </g>
  <g id="axes_1">
   <g id="patch_2">
    <path d="M 5.720148 60.170667 
L 9.570554 60.170667 
L 9.570554 19.925333 
L 5.720148 19.925333 
z
" clip-path="url(#p74228b18e1)" style="fill: var(--fig-accent)"/>
   </g>
   <g id="patch_3">
    <path d="M 5.720148 139.018667 
L 9.570554 139.018667 
L 9.570554 70.848 
L 5.720148 70.848 
z
" clip-path="url(#p74228b18e1)" style="fill: var(--fig-navy)"/>
   </g>
   <g id="patch_4">
    <path d="M 5.720148 203.904 
L 9.570554 203.904 
L 9.570554 149.696 
L 5.720148 149.696 
z
" clip-path="url(#p74228b18e1)" style="fill: var(--fig-ok)"/>
   </g>
   <g id="line2d_1">
    <defs>
     <path id="m7a11ed7973" d="M 0 1.7 
C 0.450845 1.7 0.883286 1.520877 1.202082 1.202082 
C 1.520877 0.883286 1.7 0.450845 1.7 0 
C 1.7 -0.450845 1.520877 -0.883286 1.202082 -1.202082 
C 0.883286 -1.520877 0.450845 -1.7 0 -1.7 
C -0.450845 -1.7 -0.883286 -1.520877 -1.202082 -1.202082 
C -1.520877 -0.883286 -1.7 -0.450845 -1.7 0 
C -1.7 0.450845 -1.520877 0.883286 -1.202082 1.202082 
C -0.883286 1.520877 -0.450845 1.7 0 1.7 
z
" style="stroke: var(--fig-accent)"/>
    </defs>
    <g clip-path="url(#p74228b18e1)">
     <use xlink:href="#m7a11ed7973" x="21.121771" y="36.352" style="fill: var(--fig-accent); stroke: var(--fig-accent)"/>
    </g>
   </g>
   <g id="line2d_2">
    <g clip-path="url(#p74228b18e1)">
     <use xlink:href="#m7a11ed7973" x="21.121771" y="50.314667" style="fill: var(--fig-accent); stroke: var(--fig-accent)"/>
    </g>
   </g>
   <g id="line2d_3">
    <defs>
     <path id="mac27d21246" d="M 0 1.7 
C 0.450845 1.7 0.883286 1.520877 1.202082 1.202082 
C 1.520877 0.883286 1.7 0.450845 1.7 0 
C 1.7 -0.450845 1.520877 -0.883286 1.202082 -1.202082 
C 0.883286 -1.520877 0.450845 -1.7 0 -1.7 
C -0.450845 -1.7 -0.883286 -1.520877 -1.202082 -1.202082 
C -1.520877 -0.883286 -1.7 -0.450845 -1.7 0 
C -1.7 0.450845 -1.520877 0.883286 -1.202082 1.202082 
C -0.883286 1.520877 -0.450845 1.7 0 1.7 
z
" style="stroke: var(--fig-navy)"/>
    </defs>
    <g clip-path="url(#p74228b18e1)">
     <use xlink:href="#mac27d21246" x="21.121771" y="87.274667" style="fill: var(--fig-navy); stroke: var(--fig-navy)"/>
    </g>
   </g>
   <g id="line2d_4">
    <g clip-path="url(#p74228b18e1)">
     <use xlink:href="#mac27d21246" x="21.121771" y="101.237333" style="fill: var(--fig-navy); stroke: var(--fig-navy)"/>
    </g>
   </g>
   <g id="line2d_5">
    <g clip-path="url(#p74228b18e1)">
     <use xlink:href="#mac27d21246" x="21.121771" y="115.2" style="fill: var(--fig-navy); stroke: var(--fig-navy)"/>
    </g>
   </g>
   <g id="line2d_6">
    <g clip-path="url(#p74228b18e1)">
     <use xlink:href="#mac27d21246" x="21.121771" y="129.162667" style="fill: var(--fig-navy); stroke: var(--fig-navy)"/>
    </g>
   </g>
   <g id="line2d_7">
    <defs>
     <path id="mc4331a1602" d="M 0 1.7 
C 0.450845 1.7 0.883286 1.520877 1.202082 1.202082 
C 1.520877 0.883286 1.7 0.450845 1.7 0 
C 1.7 -0.450845 1.520877 -0.883286 1.202082 -1.202082 
C 0.883286 -1.520877 0.450845 -1.7 0 -1.7 
C -0.450845 -1.7 -0.883286 -1.520877 -1.202082 -1.202082 
C -1.520877 -0.883286 -1.7 -0.450845 -1.7 0 
C -1.7 0.450845 -1.520877 0.883286 -1.202082 1.202082 
C -0.883286 1.520877 -0.450845 1.7 0 1.7 
z
" style="stroke: var(--fig-ok)"/>
    </defs>
    <g clip-path="url(#p74228b18e1)">
     <use xlink:href="#mc4331a1602" x="21.121771" y="166.122667" style="fill: var(--fig-ok); stroke: var(--fig-ok)"/>
    </g>
   </g>
   <g id="line2d_8">
    <g clip-path="url(#p74228b18e1)">
     <use xlink:href="#mc4331a1602" x="21.121771" y="180.085333" style="fill: var(--fig-ok); stroke: var(--fig-ok)"/>
    </g>
   </g>
   <g id="line2d_9">
    <g clip-path="url(#p74228b18e1)">
     <use xlink:href="#mc4331a1602" x="21.121771" y="194.048" style="fill: var(--fig-ok); stroke: var(--fig-ok)"/>
    </g>
   </g>
   <g id="text_1">
    <text style="fill: var(--fig-accent); font: 700 8.6px 'IBM Plex Mono', 'DejaVu Sans Mono', monospace; text-anchor: start" x="16.921328" y="24.1695" transform="rotate(-0 16.921328 24.1695)">Titularidad y protección  ·  2 de 9</text>
   </g>
   <g id="text_2">
    <text style="fill: var(--fig-ink); font: 8px 'IBM Plex Mono', 'DejaVu Sans Mono', monospace; text-anchor: start" x="28.122509" y="38.58075" transform="rotate(-0 28.122509 38.58075)">Protección insuficiente del resultado</text>
   </g>
   <g id="text_3">
    <text style="fill: var(--fig-ink); font: 8px 'IBM Plex Mono', 'DejaVu Sans Mono', monospace; text-anchor: start" x="28.122509" y="52.543417" transform="rotate(-0 28.122509 52.543417)">Barreras institucionales para licenciarlo</text>
   </g>
   <g id="text_4">
    <text style="fill: var(--fig-navy); font: 700 8.6px 'IBM Plex Mono', 'DejaVu Sans Mono', monospace; text-anchor: start" x="16.921328" y="74.863729" transform="rotate(-0 16.921328 74.863729)">Mercado y producto  ·  4 de 9</text>
   </g>
   <g id="text_5">
    <text style="fill: var(--fig-ink); font: 8px 'IBM Plex Mono', 'DejaVu Sans Mono', monospace; text-anchor: start" x="28.122509" y="89.503417" transform="rotate(-0 28.122509 89.503417)">Innovación incremental</text>
   </g>
   <g id="text_6">
    <text style="fill: var(--fig-ink); font: 8px 'IBM Plex Mono', 'DejaVu Sans Mono', monospace; text-anchor: start" x="28.122509" y="103.504833" transform="rotate(-0 28.122509 103.504833)">Mercado objetivo pequeño</text>
   </g>
   <g id="text_7">
    <text style="fill: var(--fig-ink); font: 8px 'IBM Plex Mono', 'DejaVu Sans Mono', monospace; text-anchor: start" x="28.122509" y="117.42875" transform="rotate(-0 28.122509 117.42875)">Ruta a la comercialización sin definir</text>
   </g>
   <g id="text_8">
    <text style="fill: var(--fig-ink); font: 8px 'IBM Plex Mono', 'DejaVu Sans Mono', monospace; text-anchor: start" x="28.122509" y="131.363917" transform="rotate(-0 28.122509 131.363917)">Tiempo hasta el mercado prolongado</text>
   </g>
   <g id="text_9">
    <text style="fill: var(--fig-ok); font: 700 8.6px 'IBM Plex Mono', 'DejaVu Sans Mono', monospace; text-anchor: start" x="16.921328" y="153.940167" transform="rotate(-0 16.921328 153.940167)">Equipo y capital  ·  3 de 9</text>
   </g>
   <g id="text_10">
    <text style="fill: var(--fig-ink); font: 8px 'IBM Plex Mono', 'DejaVu Sans Mono', monospace; text-anchor: start" x="28.122509" y="168.462667" transform="rotate(-0 28.122509 168.462667)">Capacidades de negocio y comunicación ausentes</text>
   </g>
   <g id="text_11">
    <text style="fill: var(--fig-ink); font: 8px 'IBM Plex Mono', 'DejaVu Sans Mono', monospace; text-anchor: start" x="28.122509" y="182.314083" transform="rotate(-0 28.122509 182.314083)">Estructura de propiedad comprometida</text>
   </g>
   <g id="text_12">
    <text style="fill: var(--fig-ink); font: 8px 'IBM Plex Mono', 'DejaVu Sans Mono', monospace; text-anchor: start" x="28.122509" y="196.24925" transform="rotate(-0 28.122509 196.24925)">Capital de riesgo escaso</text>
   </g>
  </g>
 </g>
 <defs>
  <clipPath id="p74228b18e1">
   <rect x="4.32" y="4.32" width="379.44" height="199.584"/>
  </clipPath>
 </defs>
</svg>