<svg xmlns:xlink="http://www.w3.org/1999/xlink" viewBox="0 0 399.24 152.784" xmlns="http://www.w3.org/2000/svg" version="1.1">
 
 <defs>
  <style type="text/css">*{stroke-linejoin: round; stroke-linecap: butt}</style>
 </defs>
 <g id="figure_1">
  <g id="patch_1">
   <path d="M 0 152.784 
L 399.24 152.784 
L 399.24 0 
L 0 0 
L 0 152.784 
z
" style="fill: none"/>
  </g>
  <g id="axes_1">
   <g id="patch_2">
    <path d="M 4.32 148.464 
L 394.92 148.464 
L 394.92 4.32 
L 4.32 4.32 
L 4.32 148.464 
z
" style="fill: none"/>
   </g>
   <g id="patch_3">
    <path d="M 16.038 90.8064 
L 129.312 90.8064 
L 129.312 24.912 
L 16.038 24.912 
z
" clip-path="url(#pa80fdce459)" style="fill: var(--fig-accent); opacity: 0.16; stroke: var(--fig-accent); stroke-width: 1.2; stroke-linejoin: miter"/>
   </g>
   <g id="patch_4">
    <path d="M 144.936 90.8064 
L 258.21 90.8064 
L 258.21 24.912 
L 144.936 24.912 
z
" clip-path="url(#pa80fdce459)" style="fill: var(--fig-ramp-3); opacity: 0.16; stroke: var(--fig-ramp-3); stroke-width: 1.2; stroke-linejoin: miter"/>
   </g>
   <g id="patch_5">
    <path d="M 273.834 90.8064 
L 387.108 90.8064 
L 387.108 24.912 
L 273.834 24.912 
z
" clip-path="url(#pa80fdce459)" style="fill: var(--fig-navy); opacity: 0.16; stroke: var(--fig-navy); stroke-width: 1.2; stroke-linejoin: miter"/>
   </g>
   <g id="matplotlib.axis_1"/>
   <g id="matplotlib.axis_2"/>
   <g id="text_1">
    <text style="fill: var(--fig-ink); font: 700 8.2px 'IBM Plex Mono', 'DejaVu Sans Mono', monospace; text-anchor: middle" x="72.675" y="60.335856" transform="rotate(-0 72.675 60.335856)">Objetivo</text>
   </g>
   <g id="patch_6">
    <path d="M 133.264727 57.8592 
Q 137.124988 57.8592 139.531805 57.8592 
" style="fill: none; stroke: var(--fig-grid); stroke-width: 1.3; stroke-linecap: round"/>
    <path d="M 135.931805 56.0592 
L 139.531805 57.8592 
L 135.931805 59.6592 
" style="fill: none; stroke: var(--fig-grid); stroke-width: 1.3; stroke-linecap: round"/>
   </g>
   <g id="text_2">
    <text style="fill: var(--fig-ink); font: 700 8.2px 'IBM Plex Mono', 'DejaVu Sans Mono', monospace; text-anchor: middle" x="201.573" y="60.121888" transform="rotate(-0 201.573 60.121888)">Indicador</text>
   </g>
   <g id="patch_7">
    <path d="M 262.162727 57.8592 
Q 266.022988 57.8592 268.429805 57.8592 
" style="fill: none; stroke: var(--fig-grid); stroke-width: 1.3; stroke-linecap: round"/>
    <path d="M 264.829805 56.0592 
L 268.429805 57.8592 
L 264.829805 59.6592 
" style="fill: none; stroke: var(--fig-grid); stroke-width: 1.3; stroke-linecap: round"/>
   </g>
   <g id="text_3">
    <text style="fill: var(--fig-ink); font: 700 8.2px 'IBM Plex Mono', 'DejaVu Sans Mono', monospace; text-anchor: middle" x="330.471" y="60.121888" transform="rotate(-0 330.471 60.121888)">Medio de verificación</text>
   </g>
   <g id="text_4">
    <text style="fill: var(--fig-navy); font: 7.6px 'IBM Plex Mono', 'DejaVu Sans Mono', monospace; text-anchor: middle" x="199.62" y="112.7712" transform="rotate(-0 199.62 112.7712)">el medio basta para calcular el indicador</text>
   </g>
   <g id="text_5">
    <text style="fill: var(--fig-accent); font: 7.6px 'IBM Plex Mono', 'DejaVu Sans Mono', monospace; text-anchor: middle" x="199.62" y="134.736" transform="rotate(-0 199.62 134.736)">y el indicador basta para evaluar el objetivo</text>
   </g>
  </g>
 </g>
 <defs>
  <clipPath id="pa80fdce459">
   <rect x="4.32" y="4.32" width="390.6" height="144.144"/>
  </clipPath>
 </defs>
</svg>