<svg xmlns:xlink="http://www.w3.org/1999/xlink" viewBox="0 0 354.6 158.328" xmlns="http://www.w3.org/2000/svg" version="1.1">
 
 <defs>
  <style type="text/css">*{stroke-linejoin: round; stroke-linecap: butt}</style>
 </defs>
 <g id="figure_1">
  <g id="patch_1">
   <path d="M 0 158.328 
L 354.6 158.328 
L 354.6 0 
L 0 0 
L 0 158.328 
z
" style="fill: none"/>
  </g>
  <g id="axes_1">
   <g id="patch_2">
    <path d="M 4.32 154.008 
L 350.28 154.008 
L 350.28 4.32 
L 4.32 4.32 
L 4.32 154.008 
z
" style="fill: none"/>
   </g>
   <g id="matplotlib.axis_1"/>
   <g id="matplotlib.axis_2"/>
   <g id="patch_3">
    <path d="M 10.973077 104.891625 
L 110.769231 104.891625 
L 110.769231 58.114125 
L 10.973077 58.114125 
z
" clip-path="url(#p861a794c2d)" style="fill: var(--fig-accent); opacity: 0.88"/>
   </g>
   <g id="text_1">
    <text style="fill: #ffffff; font: 700 8.4px 'IBM Plex Mono', 'DejaVu Sans Mono', monospace; text-anchor: middle" x="60.871154" y="83.82075" transform="rotate(-0 60.871154 83.82075)">30 %</text>
   </g>
   <g id="text_2">
    <text style="fill: var(--fig-ink); font: 8.2px 'IBM Plex Mono', 'DejaVu Sans Mono', monospace; text-anchor: middle" x="60.871154" y="44.714406" transform="rotate(-0 60.871154 44.714406)">Problema</text>
   </g>
   <g id="patch_4">
    <path d="M 110.769231 104.891625 
L 177.3 104.891625 
L 177.3 58.114125 
L 110.769231 58.114125 
z
" clip-path="url(#p861a794c2d)" style="fill: var(--fig-ramp-3); opacity: 0.88"/>
   </g>
   <g id="text_3">
    <text style="fill: #ffffff; font: 700 8.4px 'IBM Plex Mono', 'DejaVu Sans Mono', monospace; text-anchor: middle" x="144.034615" y="83.82075" transform="rotate(-0 144.034615 83.82075)">20 %</text>
   </g>
   <g id="text_4">
    <text style="fill: var(--fig-ink); font: 8.2px 'IBM Plex Mono', 'DejaVu Sans Mono', monospace; text-anchor: middle" x="144.034615" y="44.714406" transform="rotate(-0 144.034615 44.714406)">Solución</text>
   </g>
   <g id="patch_5">
    <path d="M 177.3 104.891625 
L 277.096154 104.891625 
L 277.096154 58.114125 
L 177.3 58.114125 
z
" clip-path="url(#p861a794c2d)" style="fill: var(--fig-ramp-2); opacity: 0.88"/>
   </g>
   <g id="text_5">
    <text style="fill: #ffffff; font: 700 8.4px 'IBM Plex Mono', 'DejaVu Sans Mono', monospace; text-anchor: middle" x="227.198077" y="83.82075" transform="rotate(-0 227.198077 83.82075)">30 %</text>
   </g>
   <g id="text_6">
    <text style="fill: var(--fig-ink); font: 8.2px 'IBM Plex Mono', 'DejaVu Sans Mono', monospace; text-anchor: middle" x="227.198077" y="44.714406" transform="rotate(-0 227.198077 44.714406)">Resultado</text>
   </g>
   <g id="patch_6">
    <path d="M 277.096154 104.891625 
L 343.626923 104.891625 
L 343.626923 58.114125 
L 277.096154 58.114125 
z
" clip-path="url(#p861a794c2d)" style="fill: var(--fig-ramp-1); opacity: 0.88"/>
   </g>
   <g id="text_7">
    <text style="fill: #ffffff; font: 700 8.4px 'IBM Plex Mono', 'DejaVu Sans Mono', monospace; text-anchor: middle" x="310.361538" y="83.82075" transform="rotate(-0 310.361538 83.82075)">20 %</text>
   </g>
   <g id="text_8">
    <text style="fill: var(--fig-ink); font: 8.2px 'IBM Plex Mono', 'DejaVu Sans Mono', monospace; text-anchor: middle" x="310.361538" y="44.714406" transform="rotate(-0 310.361538 44.714406)">Impacto</text>
   </g>
   <g id="text_9">
    <text style="fill: var(--fig-muted); font: 7.6px 'IBM Plex Mono', 'DejaVu Sans Mono', monospace; text-anchor: middle" x="177.3" y="127.078937" transform="rotate(-0 177.3 127.078937)">las actividades no aparecen en el resumen</text>
   </g>
  </g>
 </g>
 <defs>
  <clipPath id="p861a794c2d">
   <rect x="4.32" y="4.32" width="345.96" height="149.688"/>
  </clipPath>
 </defs>
</svg>